<?xml version="1.0" encoding="UTF-8"?>
<svg id="Layer_2" data-name="Layer 2" xmlns="http://www.w3.org/2000/svg" viewBox="0 0 175.99 179.51">
  <defs>
    <style>
      .cls-1 {
        fill: #a64f5a;
      }

      .cls-1, .cls-2, .cls-3, .cls-4 {
        stroke-width: 0px;
      }

      .cls-3 {
        fill: #fff;
      }

      .cls-4 {
        fill: #bd6c67;
      }
    </style>
  </defs>
  <g id="Layer_1-2" data-name="Layer 1">
    <g>
      <g>
        <g>
          <path class="cls-3" d="m84.83,170.14c1.58-4.92.08-17.67-4.67-22-7.42,8.17,4.67,22,4.67,22Z"/>
          <g>
            <path class="cls-3" d="m80.17,148.14s3.61-.19,7.65-1.06c.23-.05.46-.1.69-.15,4.06-1.38,4.93-5.13,8.24-7.26s10.44,2.44,14.19,2.31c4.62-.19,8.44-9,15.94-6.56,0,0,.11-.05.28-.14,1.24-.66,2.71-.78,4.02-.26,1.8.71,4.18,1.77,5.65,2.87.65.48.73,1.45.17,2.02-.26.27-.61.54-1.06.76,1.44.31,2.23,2.31.81,4.56,0,0-6.58-2-12.58,1s-19.17,14.67-42,18c0,0-4.02-10.54-2-16.09Z"/>
            <path class="cls-3" d="m90.92,145.6c-.68.54-1.46,1-2.42,1.33-.23.05-.46.1-.69.15-4.04.87-7.65,1.06-7.65,1.06-2.01,5.55,2,16.09,2,16.09,20.43-2.98,33.1-12.61,39.84-16.76-10.39.54-20.84-.09-31.08-1.87Z"/>
            <g>
              <path class="cls-3" d="m130.06,140.36c-1.21.02-2.46-.11-3.66-.01-3.87.31-7.35,3.04-11.23,2.8-.64-.04-1.37-.24-1.6-.83-.28-.72.36-1.41.96-1.93,3.32-2.47,6.84-6.76,12.35-4.96h0c1.41.66,2.77,1.46,4.01,2.4,1.06.81.51,2.52-.82,2.54Z"/>
              <path class="cls-3" d="m110.19,143.49c-.41.62-1.33.57-2.06.43-3.09-.57-6.14-1.34-9.13-2.31-.76-.25-1.67-.72-1.62-1.52.02-.38.28-.7.61-.9,3.27-.62,8.47,2.23,11.9,2.7.42.42.62,1.1.3,1.59Z"/>
            </g>
          </g>
          <path class="cls-3" d="m15.9,152.45c15.5-7.5,33.17-.27,64.27-4.31-2.01,5.55,4.67,22,4.67,22l-64.27,9.26c-7.97.88-14.94-3.5-18.67-9.8.26-5.38,2.88-13.11,14-17.15Z"/>
        </g>
        <g>
          <path class="cls-3" d="m91.16,170.14c-1.58-4.92-.08-17.67,4.67-22,7.42,8.17-4.67,22-4.67,22Z"/>
          <g>
            <path class="cls-3" d="m95.83,148.14s-3.61-.19-7.65-1.06c-.23-.05-.46-.1-.69-.15-4.06-1.38-4.93-5.13-8.24-7.26s-10.44,2.44-14.19,2.31c-4.62-.19-8.44-9-15.94-6.56,0,0-.11-.05-.28-.14-1.24-.66-2.71-.78-4.02-.26-1.81.71-4.18,1.77-5.65,2.87-.64.48-.73,1.45-.17,2.02.26.27.61.54,1.06.76-1.44.31-2.23,2.31-.81,4.56,0,0,6.58-2,12.58,1s19.17,14.67,42,18c0,0,4.02-10.54,2-16.09Z"/>
            <g>
              <path class="cls-3" d="m45.93,140.36c1.21.02,2.46-.11,3.66-.01,3.87.31,7.36,3.04,11.23,2.8.64-.04,1.37-.24,1.6-.83.28-.72-.36-1.41-.96-1.93-3.32-2.47-6.84-6.76-12.35-4.96h0c-1.41.66-2.77,1.46-4.01,2.4-1.06.81-.51,2.52.82,2.54Z"/>
              <path class="cls-3" d="m65.8,143.49c.41.62,1.33.57,2.06.43,3.09-.57,6.14-1.34,9.13-2.31.76-.25,1.67-.72,1.62-1.52-.02-.38-.28-.7-.61-.9-3.27-.62-8.47,2.23-11.9,2.7-.42.42-.62,1.1-.3,1.59Z"/>
            </g>
          </g>
          <path class="cls-3" d="m160.1,152.45c-15.5-7.5-33.17-.27-64.27-4.31,2.01,5.55-4.67,22-4.67,22l64.27,9.26c7.97.88,14.94-3.5,18.67-9.8-.26-5.38-2.88-13.11-14-17.15Z"/>
        </g>
      </g>
      <g>
        <g>
          <path class="cls-3" d="m52.92,77.4l-1.59-24.85c-10.35,1.99-17.47,11.56-16.4,22.05l3.96,38.81c.3,2.9,1.38,5.57,3.01,7.79l14.09-14.03-3.08-29.77Z"/>
          <path class="cls-3" d="m52.92,77.4l-.68-10.57c-4.83,11.67-.91,21.92,2.35,26.71l-1.67-16.15Z"/>
          <path class="cls-3" d="m56,107.17l-8.37,8.34c-.32-8.94,6.38-10.03,8.2-10.01l.17,1.67Z"/>
        </g>
        <g>
          <path class="cls-3" d="m123.08,77.4l1.59-24.85c10.35,1.99,17.47,11.56,16.4,22.05l-3.96,38.81c-.3,2.9-1.38,5.57-3.01,7.79l-14.09-14.03,3.08-29.77Z"/>
          <path class="cls-3" d="m123.08,77.4l.68-10.57c4.83,11.67.91,21.92-2.35,26.71l1.67-16.15Z"/>
          <path class="cls-3" d="m120,107.17l8.37,8.34c.32-8.94-6.38-10.03-8.2-10.01l-.17,1.67Z"/>
        </g>
        <g>
          <path class="cls-3" d="m53.47,83.54l-2.14-18.4s-4.19,3.68-.81,18.4h2.95Z"/>
          <path class="cls-3" d="m122.52,83.54l2.14-18.4s4.19,3.68.8,18.4h-2.95Z"/>
        </g>
        <g>
          <path class="cls-2" d="m113.71,127.33c-3.5,1.22-7.57,2.43-11.99,3.31-4.42.89-9.18,1.46-13.96,1.59-4.78.12-9.56-.2-14.02-.86-4.46-.65-8.6-1.65-12.15-2.68,3.35,1.57,7.42,3.01,11.92,3.96,4.49.96,9.4,1.44,14.3,1.31,4.9-.13,9.77-.87,14.21-2.06,4.44-1.19,8.44-2.84,11.7-4.58Z"/>
          <path class="cls-2" d="m71.37,118.45c2.39,2.06,6.17,4.03,10.25,4.93,4.07.94,8.34.78,11.38-.05-3.15-.17-7.15-.52-11.04-1.41-3.91-.87-7.67-2.27-10.58-3.47Z"/>
        </g>
      </g>
      <path class="cls-4" d="m53.47,83.54c.12.7.26,1.4.43,2.1-.16-.69-.31-1.39-.43-2.1h0Z"/>
      <path class="cls-4" d="m56.43,92.67c-.32-.64-.61-1.3-.88-1.96.28.66.56,1.31.88,1.96Z"/>
      <path class="cls-4" d="m55.34,90.22c-.53-1.33-.97-2.69-1.32-4.07.35,1.38.79,2.74,1.32,4.07Z"/>
      <path class="cls-4" d="m122.52,83.54c-.12.7-.26,1.4-.43,2.1.16-.69.31-1.39.43-2.1h0Z"/>
      <path class="cls-4" d="m119.57,92.67c.32-.64.61-1.3.88-1.96-.27.66-.56,1.31-.88,1.96Z"/>
      <path class="cls-4" d="m120.66,90.22c.53-1.33.97-2.69,1.32-4.07-.35,1.38-.79,2.74-1.32,4.07Z"/>
      <path class="cls-1" d="m122.1,85.63c-.04.17-.08.35-.13.52-.35,1.38-.79,2.74-1.32,4.07.86-2.16,1.49-4.39,1.87-6.68h0c-.12.7-.26,1.4-.43,2.1Z"/>
      <path class="cls-1" d="m53.9,85.63c-.16-.69-.31-1.39-.43-2.1h0c.38,2.29,1.01,4.53,1.87,6.68-.53-1.33-.97-2.68-1.32-4.07-.04-.17-.08-.35-.13-.52Z"/>
      <path class="cls-1" d="m120.46,90.72c-.27.66-.57,1.31-.88,1.96.32-.64.61-1.3.88-1.96Z"/>
      <path class="cls-1" d="m56.43,92.67c-.32-.64-.61-1.3-.88-1.96.28.66.56,1.31.88,1.96Z"/>
      <path class="cls-3" d="m101.22,48.04c-2.35-.45-4.05-2.51-4.05-4.91v-6.13c-3.75,5.68-6.33,6.34-9.17,6.34s-5.42-.67-9.17-6.34v6.13c0,2.4-1.7,4.46-4.05,4.91l-2.94.57c1.9,7.53,9.79,5.98,16.16,8.95,6.37-2.97,14.26-1.43,16.16-8.95l-2.94-.57Z"/>
      <g>
        <g>
          <path class="cls-3" d="m70.25,21.16c-1.05-.53-2.43-.57-3.32.21-.72.63-.96,1.69-.8,2.63.15.95.64,1.8,1.18,2.59.85,1.23,1.86,2.36,3,3.34.45.39.93.76,1.5.94s1.23.14,1.69-.24c.56-.47.66-1.29.65-2.02-.05-2.96-1.08-6.03-3.9-7.44Zm1.21,7.43c-.41.22-.91-.06-1.22-.41-.67-.79-.81-1.99-.34-2.92-.32-.47-.78-1.01-1.22-1.37s-1.03-.55-1.58-.43c.33-.51,1.04-.66,1.62-.48.58.17,1.05.6,1.44,1.07.77.91,1.33,2.01,1.61,3.17.12.49.13,1.13-.31,1.38Z"/>
          <path class="cls-3" d="m109.06,21.37c-.88-.78-2.26-.73-3.32-.21-2.82,1.4-3.85,4.47-3.9,7.44-.01.73.08,1.55.65,2.02.46.38,1.12.42,1.69.24s1.05-.55,1.5-.94c1.14-.98,2.15-2.1,3-3.34.54-.79,1.03-1.64,1.18-2.59.15-.95-.09-2-.8-2.63Zm-1.74,2.53c-.44.35-.9.9-1.22,1.37.47.93.33,2.13-.34,2.92-.3.35-.81.64-1.22.41-.44-.24-.43-.88-.31-1.38.29-1.16.84-2.25,1.61-3.17.39-.46.86-.89,1.44-1.07.58-.17,1.29-.02,1.62.48-.55-.12-1.14.08-1.58.43Z"/>
        </g>
        <path class="cls-3" d="m104.53,11.84c-.83-1.21-1.45-2.56-1.82-3.98L100.63,0s-2.63-.04-4.51.89c-2.94,1.44-4.78,1.61-6.77,2.04.12-1.14-.87-2-1.89-1.61-.89.34-3.69,1.87-3.69,1.87,0,0,.13-1.39-1.3-1.42-1.56-.03-4.12,1.16-4.12,1.16L75.75,0l-2.08,7.85c-.38,1.42-.99,2.77-1.82,3.98l-.91,1.33,1.5,12.21.49,2.77c.75,4.27,3.49,7.88,7.3,9.65l1.63.76c1.97.91,4.1,1.38,6.25,1.38h.16c2.15,0,4.28-.47,6.25-1.38l1.63-.76c3.81-1.77,6.55-5.38,7.3-9.65l.49-2.79,1.5-12.2-.91-1.33Zm-17.79,12.84c.54,0,1.8.15,2.45.05.52-.09,1.32-.56,1.41-.55,1.48.14.36,1.52.36,1.52-1.93.95-2.15.63-2.76.63s-1.29.29-3.22-.66c0,0-.71-1.42.61-1.36.29.01.67.38,1.16.38Zm-11.85-11.56c.95-1.48,2.31-2.84,4.78-3.36,1.42-.08,4.99,1.38,5.59,2.6-1.58-.62-4.27-.91-6.11-.91-1.85-.01-2.68,1.06-4.26,1.67Zm5.58,5.86c-1.74,0-3.24-.94-3.59-2.23,1.36.76,2.7.83,3.56.83.86-.02,2.2-.12,3.53-.91-.29,1.3-1.75,2.27-3.5,2.32Zm5.59,15.15c.65-.45,1.36-.72,2.12-.73.76-.01,1.48.23,2.14.66-1.38.43-2.87.45-4.26.07Zm2.17-2.04c-1.91.07-3.82-.38-5.11-1.15,1.48-.28,3.27-.37,5.06-.43,1.79-.05,3.59-.07,5.08.12-1.25.84-3.12,1.41-5.03,1.47Zm7.68-13.11c-1.74-.04-3.21-1.01-3.5-2.32,1.32.79,2.66.89,3.53.91.86,0,2.2-.07,3.56-.83-.34,1.3-1.84,2.23-3.59,2.23Zm.35-7.28c-1.85,0-4.36.32-5.93.95,1.04-2.27,3.42-2.18,5.63-2.56,2.05.25,4.3.74,5.18,2.72-1.58-.61-3.03-1.12-4.88-1.11Z"/>
      </g>
      <g>
        <path class="cls-3" d="m88,66.57c-1.81,5.19,0,18.44,0,18.44v-18.44Z"/>
        <path class="cls-3" d="m88,66.57c1.81,5.19,0,18.44,0,18.44v-18.44Z"/>
      </g>
    </g>
    <g>
      <path class="cls-3" d="m104.16,48.6c-3.56,6.9-13.49,6.99-16.16,6.99s-12.6-.09-16.16-6.99c1.56,6.16,7.11,11.31,12.57,14.61l1.92-6.16.2.14c.92.62,1.47,1.65,1.47,2.76v5.19s0,0,0,0v-5.19c0-1.11.55-2.14,1.47-2.76l.2-.14,1.92,6.16c5.46-3.3,11.01-8.45,12.57-14.61Z"/>
      <path class="cls-3" d="m142.26,69.82c-.65-8.37-6.82-15.27-15.07-16.84l-23.03-4.37c-1.56,6.16-7.11,11.31-12.57,14.61l3.58,11.46,1.23,9,19.99,19.9c.41-3.79,1.48-7.48,3.18-10.91.32-.64.61-1.3.88-1.96.07-.16.14-.33.2-.49h0c.53-1.33.97-2.69,1.32-4.07.04-.17.09-.35.13-.52.16-.69.31-1.39.43-2.1,5.26-.13,14.17-.41,20.72-.91l-.99-12.81Z"/>
    </g>
    <g>
      <path class="cls-3" d="m53.9,85.63c.04.17.08.35.13.52.35,1.38.79,2.74,1.32,4.07h0c.07.17.13.33.2.49.28.66.57,1.31.88,1.96,1.71,3.42,2.77,7.12,3.18,10.91l19.99-19.9,1.23-9,3.58-11.46c-5.46-3.3-11.01-8.45-12.57-14.61l-23.03,4.37c-8.25,1.57-14.43,8.47-15.07,16.84l-.99,12.81c6.55.5,15.46.78,20.72.91.12.7.26,1.4.43,2.1Z"/>
      <path class="cls-3" d="m122.13,127.69c-6.28.36-12.28-2.89-15.37-8.46l-14.26-25.67-1.59-1.44c-1.85-1.68-2.91-4.07-2.91-6.57v-20.4s0,0,0,0v20.4c0,2.5-1.06,4.89-2.91,6.57l-1.59,1.44-14.26,25.67c-3.09,5.57-9.09,8.82-15.37,8.46-.64.36-1.33.65-2.06.85,10.69,8.42,21.83,7.97,36.19,7.97s25.5.46,36.19-7.97c-.73-.21-1.42-.5-2.06-.85Z"/>
    </g>
    <g>
      <path class="cls-3" d="m95.65,151.57s-3.61-.19-7.65-1.06c0,0,0,0,0,0,4.04.87,7.65,1.06,7.65,1.06,4.86.63,9.4.9,13.65.94-4.25-.04-8.79-.31-13.65-.94Z"/>
      <path class="cls-3" d="m14.01,153.21s-.06.02-.09.04c.03-.01.06-.02.09-.04Z"/>
      <path class="cls-3" d="m29.78,149.7c9.95.07,21.61,2.95,36.92,2.81-15.31.14-26.97-2.75-36.92-2.81Z"/>
      <path class="cls-3" d="m160.1,152.45c-4.36-2.11-8.9-2.78-13.88-2.75,4.97-.03,9.52.64,13.88,2.75.69.25,1.36.52,1.98.8-.63-.28-1.29-.55-1.98-.8Z"/>
      <path class="cls-3" d="m160.08,138.77l-37.55-10.7-13.38-.73c-7.49,2.33-13.39-7.77-21.14-7.77s-13.06,10.1-20.55,7.77l-15.64,1.21-35.89,10.23c-9.51,3.19-15.92,12.09-15.92,22.12v4.07c.41,1.67,1.06,3.23,1.9,4.64.23-4.71,2.26-11.22,10.23-15.48,6.95-8.11,17.37-10.35,29.78-10.96,14.67-.72,35.71,0,46.09,0s31.42-.72,46.09,0c12.41.61,22.83,2.85,29.78,10.96-.46-.25-.95-.48-1.45-.71,9.16,4.22,11.43,11.2,11.68,16.19.84-1.41,1.48-2.96,1.9-4.64v-4.07c0-10.03-6.41-18.94-15.92-22.12Z"/>
    </g>
  </g>
</svg>